<svg xmlns="http://www.w3.org/2000/svg" width="396" height="212.14288092326342" viewBox="0 0 370.30769230769226 198.37914311666472" class="looka-1j8o68f"><defs id="SvgjsDefs8656"><linearGradient id="SvgjsLinearGradient8663"><stop id="SvgjsStop8664" stop-color="#00ddff" offset="0"></stop><stop id="SvgjsStop8665" stop-color="#ff00d4" offset="1"></stop></linearGradient><linearGradient id="SvgjsLinearGradient8666"><stop id="SvgjsStop8667" stop-color="#7f00ff" offset="0"></stop><stop id="SvgjsStop8668" stop-color="#e100ff" offset="1"></stop></linearGradient></defs><g id="SvgjsG8657" featurekey="symbolFeature-0" transform="matrix(0.590719668993431,0,0,0.590719668993431,-80.1641227384058,-58.14245504226035)" fill="url(#SvgjsLinearGradient8663)"><g xmlns="http://www.w3.org/2000/svg" fill="url(#SvgjsLinearGradient8663)"><path d="M292.73 330.28q6.42-6.51 8.35-13.47 2.32-8.37-1.8-16.62-.45-.9.54-1.04 7.46-1.02 14.08-5.47.24-.16.33.12c6.96 21.11-4.31 36.64-19.68 50.35q-.44.39.14.41 1.71.06 3.91-.58c8.92-2.61 20.89-5.6 24.63-14.72q1.49-3.62-.94-7.73a.16.14-26.5 0 1 .08-.2q.05-.02.08-.03.05-.01.11.05 11.62 12.26-.22 24.44-2.69 2.77-9.61 6.14-6.66 3.24-20.82 9.23c-10.1 4.26-19.61 10.48-25.27 20.03q-.25.43-.71.61-7.52 2.96-13.06 8.55-.85.85-.79-.35.34-6.67 4.04-12.86 4.37-7.32 7.68-11.55.1-.13-.01-.21h-.01q-.1-.08-.19.01c-7.33 7.34-13.42 17.18-14.07 27.53q-.19 3.06-1.08 5.15-1.7 4.01-2.32 9.47-.23 1.96-.63.03c-3.57-17.4-1.16-33.79 9.96-47.89q6.83-8.66 7.75-9.96 5.73-8.1 9.7-17.81c4.74-11.59 1.47-26.32-8.45-33.9q-9.22-7.05-12.88-10.1-16.55-13.8-16.95-35.31-.02-1.35.67-.19c1.65 2.79 3.53 5.67 5.49 8 7.09 8.42 14.76 15.93 23.44 22.53 4.36 3.32 8.56 5.92 11.16 9.6q1.54 2.18.64-.34c-2.42-6.82-6.99-11.98-12.01-17.08q-4.15-4.22-5.49-6.63c-3.87-7.01-1.88-13.94 0-21.71 2.55-10.49-5.76-25.26-12.13-33.32-1.79-2.27-3.83-3.94-6.83-4.6q-9.46-2.08-19.36-3.55-.52-.07-.89.29-12.68 12.36-15.73 31.46-1.06 6.66 1.62 11.73c2.1 3.97-1.85 10.38-3.86 12.84q-3.39 4.13-8.68 8.5c-3.45 2.84-.75 6.83 2.51 7.89q3.93 1.27 6.31 2.53a1.76 1.38 46.8 0 1 .27 2.94l-.39.09q-.54.13-.64.68-.51 2.76-3.08 4.33a1.35 1.35 0 0 0-.06 2.26q6.02 4.15 11.51 6.31.32.12.3.47-.01.16-.06.27-.12.23-.38.23-5.13.04-8.65 3.26a1.41 1.41 0 0 0 .6 2.4c2.15.57 6.06 1.85 4.8 4.95q-1.64 3.99-1.71 4.17c-1.96 5.04 1.08 12.71 7.67 10.69 4.6-1.42 9.3-3.49 14.97-5.17q12.43-3.69 17.59-5.68c4.61-1.77 15.25-6.86 14.35-13.23q-.3-2.11-1.1-3.91-.49-1.12.54-.45c5.46 3.53 10.08 7.7 12.8 13.81q6.32 14.2-2.63 27.92-6.37 9.78-13.49 18.45a.37.36-31.6 0 1-.64-.15c-1.63-7.58-4.23-16.21-8.62-22.81q-6.23-9.38-17.42-7.4-11.92 2.1-13.71 2.37c-13.54 2.03-15.32-8.01-13.77-18.5a1.19 1.17 29.9 0 0-.26-.93q-.65-.79-2.31-2.61c-2.42-2.65-.65-4.32-.09-7.08q.09-.44-.2-.79c-1.58-1.93-4.25-5.49-3.48-7.69.85-2.43 2.14-5.24.62-6.83-4.48-4.68-11.4-8.62-4.11-15.49 5.33-5.02 11.05-10.2 9.78-17.93q-1.01-6.09-.59-9.3 1.72-13.26 7.71-25.57a.19.19 0 0 0-.19-.28q-7.92.82-14.34-3.02-8.37-5-15.16-12.71c-5.46-6.2-8.33-16.95-2.55-23.86q1.07-1.28.88.38c-1.03 9.31-.12 16.68 7.23 23 7.2 6.19 18.2 10.12 27.08 5.07a.24.24 0 0 0-.01-.42q-11.32-5.7-17.05-17.28c-6.98-14.13-11.34-32.47-9.84-48.58q.21-2.26.75-.05c1.46 6 3.78 13.58 5.29 18.1 5.28 15.87 17.72 30.37 34.23 35.33q1.88.56.35-.67c-4.39-3.54-7.51-7.64-10.73-12.56q-8.65-13.24-5.71-29.1c1.55-8.33 9.99-10.83 18.8-15.33 7.53-3.85 9.73-9.72 12.42-17.14 2.58-7.07 6.49-12.47 12.78-16.72q1.4-.94.62.55-2.29 4.44-2.7 9.18-.5 5.84-1.58 8.91c-1.21 3.43-4.67 5.73-7.89 8.02a.08.08 0 0 0 .08.14q5.52-2.31 8.32-6.65c.62-.96.96-2.53 1.53-3.63a1.33 1.31 2.9 0 1 .7-.62q8.84-3.38 13.36-11.46a.18.12-54.8 0 1 .23-.09h.01q.1.12.07.21-4.36 11.3-12.35 19.86c-4.73 5.07-13.43 8.35-17.93 10.61q-10.62 5.34-13.38 17.47-3.95 17.39 10.16 28.23.42.31.53-.19.64-2.79 1.73-8.48c1.4-7.29-2.32-11.56-4.47-17.54q-1.48-4.1-.47-8.61.99-4.37 1.11.11c.15 5.82 3.04 8.87 6.45 13.67q.3.42.46-.06.35-1.03 1.08-3.19 3.36-10 12.77-14.02.31-.14.46.16.09.17.08.29-.01.1-.11.2-8.11 7.99-10.09 18.67c-.68 3.66-.08 8.78-.18 12.92q-.02 1 .67.28 2.26-2.36 3.41-6.03.62-1.99.86.08c.69 6.1-1.22 9.5-4.53 14.28a3.01 2.96 60.1 0 0-.52 1.98q.77 8.17 7.87 11.81.46.23.57-.28 1.28-6.36 4.37-13.17 2.2-4.86 2.56-10.91.05-.88.45-.1 1.84 3.7 1.44 7.53-.07.72.42.19c5.74-6.21 10.25-11.74 10.29-20.53.04-7.26-.51-14.39 2.48-21.06q3.34-7.46 10.54-10.43 1.39-.58.37.53-7.69 8.29-8.83 20.81c-.89 9.84-1.25 19.33-6.65 27.77q-3.17 4.95-6.34 10.18c-4.31 7.1-8.33 25.56 1.9 30.86a.79.79 0 0 0 1.15-.69c.14-10.24.57-18.34 8.81-25.66q1.28-1.13.9.53-2.68 11.56-3.04 23.34c-.25 8.26 3.31 17.62 7.01 26.19.39.91.87 2.78.88 3.93.09 8.1.37 15.75 2.54 23.42q.5 1.78 1.21.07 4.25-10.29-.22-20.66-4.73-10.96-8.51-22.09-.4-1.19.57-.4c14.51 11.79 25.82 23.59 26.9 43.01.09 1.66.16 2.77-.97 3.99q-3.03 3.27-6.02 7.24-4.94 6.54-.56 13.73 4.87 8 5.08 8.34c6.59 10.67 1.91 19.84-4.81 28.7q-.3.41.05.05M233.5 202.04q-9.16-1.7-18.83-4.68c-10.12-3.12-15.52-11.6-19.93-20.46q-.06-.11-.17-.06h-.01q-.11.05-.05.19c2.72 7.1 7.49 15.41 14.15 19.28q3.98 2.32 9.26 3.32 11.55 2.19 15.33 2.49.18.01.24.01a.05.05 0 0 0 .01-.09"></path><path d="M216.72 135.91q1.45-3.36 1.94-5.82c1.39-7.09-3.45-15.64-.76-23.16q.1-.27.39-.34.37-.08.35.21-.39 4.64 1.51 9.08c3.1 7.3 7.79 16.63-3.33 20.14a.08.08 0 0 1-.1-.11M194.58 163.88c-2.27-3.93-3.31-7.15-2.63-11.96q1.63-11.49 11.9-17.67 2-1.21.6.66c-3.97 5.27-7.24 11.32-7.72 17.1q-.47 5.68-1.51 11.75-.16.95-.64.12M263.12 164.13c-1.02-3.03-4.44-6.42-5.78-9.18q-3.91-8.06-.5-16.9.08-.2.27-.17.05.01.11.05.11.06.09.19-.34 3.24-.26 5.66c.21 6 3.86 8.94 8.48 14.51 2.23 2.69.5 7.66-1.31 10.26q-.35.5-.42-.11-.39-3.43-.68-4.31M328.87 198.42l1.31-2.93q1.64-3.7 1.94.34.4 5.32-1.61 14.34a.98.98 0 0 1-.63.71l-6.37 2.3a.48.47 81.4 0 1-.63-.47c.43-9.04-1.38-15.01-4.45-24.37-4.07-12.4 3.41-22.24 15.15-25.4q1.66-.44.31.62c-7.45 5.93-12.73 15.18-9.9 25q1.06 3.68 4.31 9.88.3.58.57-.02"></path><path d="M316.2 237.41q1.07-7.03 1.8-14.11.53-5.15 4-7.89.71-.56 6.17-2.8c10.58-4.33 16.06-14.93 16.97-26.01q.05-.59.34-6.05.09-1.51.66-.11c3.89 9.48 3.26 21.68-4.33 29.15q-3.97 3.92-9.72 7.46c-3.92 2.41-4.65 8.24-5.26 13.53q-.68 5.96 1.39 10.89.47 1.13.76-.06 1.18-4.9 4.5-7.91 1.22-1.1.73.47c-2.23 7.06-1.55 13.05-1.22 19.38a.31.31 0 0 0 .5.23c9.04-6.9 10.43-19.89 7.6-30.11q-.42-1.49.53-.27.7.9 1.4 2.58c6.82 16.35.22 32.9-13.43 43.06q-5.28 3.94-11.46 7.02-9.08 4.54-20.47 7.78-.09.03-.06.13l.09.25q.07.19.27.15c11.07-2.53 22.19-6.71 31.11-13.6q.98-.76.63.43c-4.19 14.5-16.13 25.18-31.47 26.46q-.73.07-1.2-.49c-3.94-4.72-6.49-10.82-2.01-16.44 6.84-8.56 13.11-15.03 15.7-25.06.58-2.23.98-5.68-.67-7.93-5.35-7.3-14.48-12.39-20.29-19.63-11.28-14.03-12.49-30.97-8.13-47.93q.08-.31.4-.26l.24.05q.03 0 .01.18-2.1 23.1 14.8 38.31 1.35 1.21.64-.45-2.03-4.78-.97-10.78c1.4-7.95 9.24-13.42 10.89-21.93q1.75-9.09-5.02-15.23-2-1.82.37-.52c12.72 6.98 8.6 19.84 3.93 30.6q-1.1 2.54-1.64 6.82c-1.07 8.42 5.05 13.32 10.74 18.1a1.43 1.42-71 0 1 .51 1.05q.14 5.84-.74 11.41a.3.04 45.9 0 0 .16.21h.01q.18.2.24-.13M166.6 195.22q4.67 3.74 9.16 5.24c2.56.85 3.68 1.06 5.23 2.72q1.84 1.99 4.42 4.3 1.1.98-.36.76-9.7-1.47-16.14-8.62-1.9-2.1-2.65-4.15-.27-.73.34-.25M238.33 238.74q-.69.41-1.25.36-.62-.05-.41-.64c.61-1.74 2.71-6.94 4.48-7.76q3.6-1.66 5.57-1.48 1.56.14.22.94l-1.85 1.09q-.47.28-.37.82c.53 2.83 1.19 6.34 4.76 6.67a1.14 1.13-69.6 0 1 .82 1.79q-2.02 2.79-4.03.58a1.47 1.47 0 0 0-2.31.17c-5.48 8.17-2.28 15.15 3.91 21.45q.02.02.02.04l-.01.25q-.01.23-.19.09-11.46-9.14-8.85-24.03.12-.72-.51-.34M211.89 239.99c-1.58.98-2.59 2.39-4.27 4.28q-1.18 1.33-1.95-.27-.69-1.46-.73-2.94-.05-1.85 1.5-2.86 7.31-4.78 14.61-.83.39.21.39.55 0 .09-.07.25-.06.12-.19.1-5.44-.66-9.29 1.72M211.15 260.66q-.47-1.01-2.07-1.16a.27.25-4.8 0 1-.22-.17l-.16-.42q-.08-.25.17-.21 1.53.25 2.02-.08 1.75-1.2.5-2.79-1.26-1.6.58-.74c3.92 1.83 8.16.4 12.45-1.17q1.45-.53.54.72c-2.16 2.97-4.74 3.41-8.08 4.45-2.1.66-3.32 2.24-5.93 2.37q-.83.04-.29-.39.06-.04.38-.16.19-.06.11-.25M325 345.15c3.18-4.32 3.82-7.91 4.23-13.15q.04-.49.35-.88c7.78-9.68 18.26-22.44 13.35-35.67q-.34-.91.34-.22c4.34 4.43 5.14 13.71 4.15 19.51-2.21 13-11.09 23.46-21.98 30.7q-.25.16-.33.07-.04-.05-.07-.1-.09-.19-.04-.26M261.2 426.74c1.18 3.66 3.59 4.42 6.16 6.73q1.48 1.33-.42.4c-13.78-6.7-19.45-18.19-17.04-33.24 1.27-7.95 7.72-13.84 14.6-17.33q1.25-.64.58.6c-7.2 13.37-8.45 28.68-3.88 42.84"></path></g></g><g id="SvgjsG8658" featurekey="nameFeature-0" transform="matrix(1.1803765283933243,0,0,1.1803765283933243,125.16709762640502,52.04610275462015)" fill="#37b5fe"><path d="M30.2 24.880000000000003 q0 -3.2 -1.64 -5.8 q-1.56 -2.52 -4.26 -3.96 t-5.86 -1.44 q-3.28 0 -5.98 1.48 t-4.22 4.04 q-1.56 2.68 -1.56 5.96 q0 3.12 1.68 5.76 q1.6 2.48 4.3 3.94 t5.84 1.46 t5.84 -1.52 t4.26 -4.08 q1.6 -2.68 1.6 -5.84 z M34.52 25.119999999999997 q0 4.32 -2.24 7.96 q-2.16 3.48 -5.86 5.54 t-7.98 2.06 q-4.44 0 -8.16 -2.16 q-3.64 -2.08 -5.72 -5.72 q-2.16 -3.72 -2.16 -8.16 q0 -4.28 2.28 -7.88 q2.16 -3.44 5.86 -5.46 t7.94 -2.02 q4.36 0 8.08 2.12 q3.64 2.08 5.76 5.64 q2.2 3.72 2.2 8.08 z M45.68 14.52 l0 9.92 q1.24 -0.72 2.76 -0.96 q1.12 -0.2 2.88 -0.2 l5.68 0 q2.36 0 3.68 -1.08 q1.4 -1.16 1.4 -3.48 q0 -2.2 -1.48 -3.28 q-1.28 -0.92 -3.6 -0.92 l-11.32 0 z M58.44 35.28 l-3.64 -7.64 l-3.48 0 q-1.64 0 -2.88 0.2 q-1.52 0.28 -2.76 0.96 l0 11.2 l-4.36 0 l0 -29.84 l15.68 0 q2.76 0 4.88 1.04 t3.28 2.96 q1.24 2.04 1.24 4.8 q0 3.36 -1.8 5.52 t-5.08 3 l2.32 4.76 q1 1.48 1.56 2.08 q0.68 0.76 1.3 1.02 t1.62 0.26 l0.44 0 l0.96 -0.04 l0 4.44 q-2.32 0 -3.44 -0.16 q-1.88 -0.32 -3.2 -1.24 q-1.56 -1.12 -2.64 -3.32 z M79.20000000000002 40 l-4.28 0 l0 -29.84 l4.28 0 l0 29.84 z M109.88000000000001 40 l-24.28 0 l0 -4.4 l16.8 -21.04 l-15.88 0 l0 -4.4 l21.88 0 l0 4.24 l-17.36 21.24 l18.84 0 l0 4.36 z M120.64000000000001 28.04 l0 7.6 l18.4 0 l0 4.36 l-22.76 0 l0 -29.84 l21 0 l0 4.4 l-16.64 0 l0 9.04 q1.24 -0.72 2.76 -0.96 q1.12 -0.2 2.88 -0.2 l6.52 0 l0 4.44 l-6.52 0 q-1.64 0 -2.88 0.2 q-1.52 0.28 -2.76 0.96 z M146.92000000000002 14.36 l-3.48 -4.2 l5.64 0 l19.16 22.8 l0 -22.8 l4.4 0 l0 29.84 l-4.32 0 l-17.12 -20.52 l0 20.52 l-4.28 0 l0 -25.64 z M185.76000000000002 26.8 l0 13.2 l-4.32 0 l0 -29.84 l4.32 0 l0 12.24 q1.6 -0.8 3.8 -0.8 q0.8 0 3.88 0.36 q4.32 0.52 5.84 0.52 q2.32 0 4.04 -0.76 l0 -11.56 l4.36 0 l0 29.84 l-4.36 0 l0 -13.88 q-1.72 0.76 -4.04 0.76 q-1.52 0 -5.84 -0.52 q-3.08 -0.36 -3.88 -0.36 q-2.2 0 -3.8 0.8 z"></path></g><g id="SvgjsG8659" featurekey="sloganFeature-0" transform="matrix(0.9263408189792443,0,0,0.9263408189792443,142,106.73375249710864)" fill="url(#SvgjsLinearGradient8666)"><path d="M0 6.021000000000001 l0.45998 0 l5.0286 13.978 l-0.45814 0 z M0.66972 6.021000000000001 l0.45998 0 l5.0286 13.978 l-0.45814 0 z M1.3395 6.021000000000001 l0.45998 0 l5.0286 13.978 l-0.45814 0 z M2.0092 6.021000000000001 l0.45998 0 l5.0286 13.978 l-0.45814 0 z M12.767 6.021000000000001 l0.45998 -0.000039062 l-5.0286 13.978 l-0.48941 0 l-5.0304 -13.978 l0.45998 0 l3.4756 9.6596 l3.4738 -9.6596 l0.45998 0 l-3.7056 10.296 l0.10672 0.29256 l3.8086 -10.589 l0.45998 0 l-4.0404 11.227 l0.10488 0.29256 l4.1454 -11.52 l0.45998 0 l-4.3754 12.158 l0.10672 0.29256 l4.4784 -12.451 l0.45998 0 l-4.6992 13.06 l-0.023926 -0.0073632 l0.11959 0.32936 z M19.677599999999998 5.6850000000000005 c4.046 0 7.3376 3.2898 7.3376 7.3376 c0 4.046 -3.2916 7.3376 -7.3376 7.3376 s-7.3376 -3.2916 -7.3376 -7.3376 s3.2916 -7.3376 7.3376 -7.3376 z M19.677599999999998 19.9258 c3.8068 0 6.9052 -3.0984 6.9052 -6.9052 s-3.0984 -6.9052 -6.9052 -6.9052 s-6.9052 3.0966 -6.9052 6.9052 s3.0984 6.9052 6.9052 6.9052 z M19.677599999999998 6.332000000000001 c3.689 0 6.69 3.001 6.6882 6.6882 c0 3.6872 -3.001 6.6882 -6.6882 6.6882 s-6.6882 -2.999 -6.6882 -6.6882 c0 -3.6872 2.999 -6.6882 6.6882 -6.6882 z M19.677599999999998 19.27814 c3.4498 0 6.2576 -2.8078 6.2558 -6.2558 c0 -3.4518 -2.8058 -6.2576 -6.2558 -6.2576 s-6.2576 2.8078 -6.2576 6.2576 s2.8078 6.2558 6.2576 6.2558 z M19.677599999999998 6.98 c3.332 0 6.0404 2.7102 6.0404 6.0404 s-2.7102 6.0404 -6.0404 6.0404 s-6.0404 -2.7102 -6.0404 -6.0404 s2.7102 -6.0404 6.0404 -6.0404 z M19.677599999999998 18.6287 c3.093 0 5.608 -2.5152 5.608 -5.608 s-2.5152 -5.608 -5.608 -5.608 s-5.608 2.5152 -5.608 5.608 s2.5152 5.608 5.608 5.608 z M19.677599999999998 7.628 c2.9734 0 5.3928 2.4196 5.3928 5.3928 s-2.4196 5.3928 -5.3928 5.3928 s-5.3928 -2.4196 -5.3928 -5.3928 s2.4196 -5.3928 5.3928 -5.3928 z M19.677599999999998 17.981 c2.736 0 4.9604 -2.2244 4.9604 -4.9604 s-2.2244 -4.9604 -4.9604 -4.9604 s-4.9604 2.2244 -4.9604 4.9604 s2.2244 4.9604 4.9604 4.9604 z M19.677599999999998 8.277 c2.6164 0 4.7452 2.127 4.7434 4.7434 c0 2.6146 -2.127 4.7434 -4.7434 4.7434 s-4.7452 -2.127 -4.7452 -4.7434 c0 -2.6146 2.1288 -4.7434 4.7452 -4.7434 z M19.677599999999998 17.3334 c2.379 0 4.3128 -1.9338 4.3128 -4.3128 s-1.9356 -4.3128 -4.3128 -4.3128 s-4.3128 1.9338 -4.3128 4.3128 s1.9356 4.3128 4.3128 4.3128 z M35.7952 6.52 l-8.6753 0 l0 -0.43238 l8.6753 0 l0 0.43238 z M35.7952 7.188000000000001 l-8.6753 0 l0 -0.43238 l8.6753 0 l0 0.43238 z M35.7952 7.853999999999999 l-8.6753 0 l0 -0.43238 l8.6753 0 l0 0.43238 z M35.7952 8.522 l-8.6753 0 l0 -0.43238 l8.6753 0 l0 0.43238 z M27.12 9.188 l0 -0.43238 l8.6771 0 l0 0.43238 l-2.7893 0 l0 10.811 l-0.43055 0 l0 -10.811 l-0.23551 0 l0 10.811 l-0.43238 0 l0 -10.811 l-0.23367 0 l0 10.811 l-0.43238 0 l0 -10.811 l-0.23551 0 l0 10.811 l-0.43238 0 l0 -10.811 l-0.23367 0 l0 10.811 l-0.43238 0 l0 -10.811 l-2.7893 0 z M39.547399999999996 12.8292 l0.3919 -0.18031 l3.4076 7.3506 l-0.47654 0 z M40.1564 12.5588 l0.39192 -0.18031 l3.5326 7.621 l-0.47654 0 z M40.739799999999995 12.2422 l0.39376 -0.18215 l3.6836 7.9392 l-0.47654 0 z M36.73238 19.99939454 l-0.43238 0 l0 -13.971 l0.43238 0 l0 13.971 z M37.398399999999995 19.99939454 l-0.43238 0 l0 -13.971 l0.43238 0 l0 13.971 z M38.066399999999994 19.99939454 l-0.43238 0 l0 -13.971 l0.43238 0 l0 13.971 z M38.7324 19.99939454 l-0.43238 0 l0 -13.971 l0.43238 0 l0 13.971 z M42.967999999999996 14.428 l2.5852 5.5732 l-0.47654 0 l-3.7498 -8.0884 l0.2208 -0.16191 c0.39558 -0.27784 0.63662 -0.73414 0.63662 -1.218 c0 -0.81876 -0.66606 -1.483 -1.483 -1.483 l-1.3008 0 l0 4.0184 l3.2126 6.931 l-0.47654 0 l-2.736 -5.9026 l0 5.9025 l-0.43238 0 l0 -13.971 l1.7314 0 c2.4858 0 4.5078 2.022 4.5078 4.5078 c0 1.6063 -0.85556 3.0818 -2.2392 3.8914 z M41.8658 12.0472 l0.091992 0.2024 c0.54278 -0.39926 0.87212 -1.0395 0.87212 -1.7166 c0 -1.1757 -0.95676 -2.1306 -2.1306 -2.1306 l-1.3008 0 l0 0.21527 l1.3008 0 c1.0561 0 1.9154 0.85924 1.9154 1.9154 c0 0.5943 -0.27966 1.1518 -0.74884 1.5143 z M42.1436 12.6488 l0.090136 0.19867 c0.77278 -0.51334 1.2438 -1.3836 1.2438 -2.3146 c0 -1.5327 -1.2456 -2.7782 -2.7782 -2.7782 l-1.3008 0 l0 0.21527 l1.3008 0 c1.4131 0 2.563 1.15 2.563 2.563 c0 0.8427 -0.42502 1.6412 -1.1187 2.116 z M42.419599999999996 13.241399999999999 l0.092012 0.19691 c1.0028 -0.62558 1.6173 -1.7222 1.6173 -2.907 c0 -1.8878 -1.5382 -3.426 -3.4278 -3.426 l-1.3008 0 l0 0.21527 l1.3008 0 c1.77 0 3.2106 1.4407 3.2106 3.2106 c0 1.1003 -0.56854 2.1214 -1.4922 2.7102 z M42.693799999999996 13.8338 l0.093848 0.20056 c1.2291 -0.73598 1.989 -2.0608 1.989 -3.4978 c0 -2.2466 -1.8289 -4.0754 -4.0754 -4.0754 l-1.3008 0 l0 0.21344 l1.3008 0 c2.127 0 3.8584 1.7314 3.8584 3.8584 c0 1.3523 -0.71204 2.6016 -1.8657 3.3008 z M46.99238 20.0012305 l-0.43238 0 l0 -13.982 l0.43238 0 l0 13.982 z M47.65839999999999 20.0012305 l-0.43238 0 l0 -13.982 l0.43238 0 l0 13.982 z M48.32639999999999 20.0012305 l-0.43238 0 l0 -13.982 l0.43238 0 l0 13.982 z M48.992399999999996 20.0012305 l-0.43238 0 l0 -13.982 l0.43238 0 l0 13.982 z M54.731199999999994 6.449999999999999 l-5.0708 0.000019531 l0 0.23551 l5.0708 0 l0 0.43238 l-5.0708 0 l0 0.23367 l5.0708 0 l0 0.43238 l-5.0708 0 l0 0.23551 l5.0708 0 l0 0.43238 l-5.0708 0 l0 0.23367 l5.0708 0 l0 0.43238 l-5.0708 0 l0 2.6863 l3.6891 0 l0 0.43238 l-3.6891 0 l0 0.23551 l3.6891 0 l0 0.43055 l-3.6891 0 l0 0.23551 l3.6891 0 l0 0.43238 l-3.6891 0 l0 0.23367 l3.6891 0 l0 0.43238 l-3.6891 0 l0 0.23551 l3.6891 0 l0 0.43238 l-3.6891 0 l0 1.9963 l5.0708 0 l0 0.43238 l-5.0708 0 l0 0.23367 l5.0708 0 l0 0.43238 l-5.0708 0 l0 0.23551 l5.0708 0 l0 0.43055 l-5.0708 0 l0 0.23551 l5.0708 0 l0 0.43238 l-5.0708 0 l0 0.23367 l5.0708 0 l0 0.43238 l-5.5032 0 l0 -13.98 l5.5032 0 l0 0.43055 z M60.379999999999995 6.021000000000001 l0.45998 0 l5.0286 13.978 l-0.45814 0 z M61.04971999999999 6.021000000000001 l0.45998 0 l5.0286 13.978 l-0.45814 0 z M61.7195 6.021000000000001 l0.45998 0 l5.0286 13.978 l-0.45814 0 z M62.389199999999995 6.021000000000001 l0.45998 0 l5.0286 13.978 l-0.45814 0 z M73.14699999999999 6.021000000000001 l0.45998 -0.000039062 l-5.0286 13.978 l-0.48941 0 l-5.0304 -13.978 l0.45998 0 l3.4756 9.6596 l3.4738 -9.6596 l0.45998 0 l-3.7056 10.296 l0.10672 0.29256 l3.8086 -10.589 l0.45998 0 l-4.0404 11.227 l0.10488 0.29256 l4.1454 -11.52 l0.45998 0 l-4.3754 12.158 l0.10672 0.29256 l4.4784 -12.451 l0.45998 0 l-4.6992 13.06 l-0.023926 -0.0073632 l0.11959 0.32936 z M74.55237999999999 19.99939454 l-0.43238 0 l0 -13.978 l0.43238 0 l0 13.978 z M75.2203 19.99939454 l-0.43238 0 l0 -13.978 l0.43238 0 l0 13.978 z M75.8864 19.99939454 l-0.43238 0 l0 -13.978 l0.43238 0 l0 13.978 z M76.5542 19.99939454 l-0.43238 0 l0 -13.978 l0.43238 0 l0 13.978 z M77.22019999999999 19.99939454 l-0.43238 0 l0 -13.978 l0.43238 0 l0 13.978 z M82.573 11.3334 c2.3754 0.018398 4.3036 1.954 4.3036 4.333 c0 2.3882 -1.943 4.333 -4.333 4.333 c-1.7829 0 -3.3598 -1.069 -4.022 -2.7268 l0.3459 -0.16008 l0.045996 -0.018398 c0.59062 1.5014 2.0166 2.4728 3.6284 2.4728 c2.1508 0 3.9006 -1.7498 3.9006 -3.9006 s-1.7498 -3.9006 -3.9006 -3.9006 l0 -0.0055273 c-0.92732 -0.016563 -1.678 -0.7746 -1.678 -1.7075 c0 -0.94204 0.76724 -1.7093 1.7093 -1.7093 c0.69732 0 1.2971 0.41398 1.5621 1.0138 l-0.39192 0.18215 c-0.19688 -0.45078 -0.64582 -0.76358 -1.1702 -0.76358 c-0.70286 0 -1.2769 0.57406 -1.2769 1.2788 s0.57222 1.2788 1.2769 1.2788 z M80.6394 10.0546 c0 1.0672 0.86842 1.9338 1.9337 1.9356 c2.0148 0.016563 3.6468 1.6596 3.6468 3.6762 c0 2.0276 -1.6504 3.678 -3.678 3.678 c-1.5161 0 -2.8776 -0.9402 -3.426 -2.3478 l0.39192 -0.18215 c0.47838 1.2567 1.6872 2.0976 3.034 2.0976 c1.7903 0 3.2456 -1.4554 3.2456 -3.2456 s-1.4554 -3.2456 -3.2456 -3.2456 l0 -0.0018359 c-1.2898 -0.016563 -2.3348 -1.0708 -2.3348 -2.3644 c0 -1.3045 1.0616 -2.3662 2.3662 -2.3662 c0.9402 0 1.7774 0.56302 2.1546 1.3947 l-0.39192 0.18215 c-0.30542 -0.68078 -0.99356 -1.1445 -1.7626 -1.1445 c-1.0672 0 -1.9338 0.8666 -1.9338 1.9338 z M85.32199999999999 8.809 l-0.39192 0.18398 c-0.41398 -0.9126 -1.3376 -1.5253 -2.357 -1.5253 c-1.4278 0 -2.5888 1.161 -2.5888 2.5888 s1.161 2.5888 2.5888 2.5888 c1.6504 0.016563 2.9898 1.3634 2.9898 3.0194 c0 1.6651 -1.3542 3.0212 -3.0212 3.0212 c-1.2585 0 -2.392 -0.80038 -2.828 -1.9687 l0.39376 -0.18215 c0.3643 1.0175 1.345 1.7185 2.4342 1.7185 c1.4278 0 2.5888 -1.161 2.5888 -2.5888 s-1.161 -2.5888 -2.5888 -2.5888 l0 -0.0018359 c-1.6504 -0.016563 -2.9898 -1.3634 -2.9898 -3.0194 c0 -1.6651 1.3542 -3.0212 3.0212 -3.0212 c1.1886 0 2.265 0.71388 2.7488 1.7755 z M85.9198 8.533 l-0.39376 0.18031 c-0.52254 -1.15 -1.678 -1.9043 -2.955 -1.9043 c-1.7903 0 -3.2456 1.4554 -3.2456 3.2456 s1.4554 3.2456 3.2456 3.2456 l0 0.0018359 c1.2898 0.016563 2.3348 1.0708 2.3348 2.3644 c0 1.3045 -1.0616 2.3662 -2.3662 2.3662 c-1.0101 0 -1.9043 -0.65318 -2.2318 -1.5897 l0.39376 -0.18215 c0.25574 0.78748 0.99908 1.3395 1.8399 1.3395 c1.0672 0 1.9338 -0.8666 1.9338 -1.9338 s-0.8666 -1.9338 -1.9338 -1.9338 c-2.0148 -0.016563 -3.6468 -1.6596 -3.6468 -3.6762 c0 -2.0276 1.6504 -3.678 3.678 -3.678 c1.4462 0 2.7526 0.85374 3.3468 2.1546 z M82.5418 14.387599999999999 c-2.3736 -0.016563 -4.3018 -1.954 -4.3018 -4.3312 c0 -2.39 1.943 -4.333 4.333 -4.333 c1.7148 0 3.2346 0.98804 3.9394 2.5354 l-0.39192 0.18215 c-0.63478 -1.3947 -2.0038 -2.2852 -3.5474 -2.2852 c-2.1508 0 -3.9006 1.7498 -3.9006 3.9006 s1.7498 3.9006 3.9006 3.9006 l0 0.0018359 c0.92732 0.016563 1.678 0.7746 1.678 1.7075 c0 0.94204 -0.7654 1.7093 -1.7093 1.7093 c-0.77094 0 -1.4204 -0.50598 -1.6339 -1.2107 l0.39558 -0.18398 c0.13984 0.5575 0.64032 0.96228 1.2383 0.96228 c0.70468 0 1.2788 -0.57222 1.2788 -1.2769 s-0.57406 -1.2788 -1.2788 -1.2788 z M88.31237999999999 19.99939454 l-0.43238 0 l0 -13.978 l0.43238 0 l0 13.978 z M88.9803 19.99939454 l-0.43238 0 l0 -13.978 l0.43238 0 l0 13.978 z M89.6464 19.99939454 l-0.43238 0 l0 -13.978 l0.43238 0 l0 13.978 z M90.3142 19.99939454 l-0.43238 0 l0 -13.978 l0.43238 0 l0 13.978 z M90.9802 19.99939454 l-0.43238 0 l0 -13.978 l0.43238 0 l0 13.978 z M98.9376 5.6850000000000005 c4.046 0 7.3376 3.2898 7.3376 7.3376 c0 4.046 -3.2916 7.3376 -7.3376 7.3376 s-7.3376 -3.2916 -7.3376 -7.3376 s3.2916 -7.3376 7.3376 -7.3376 z M98.9376 19.9258 c3.8068 0 6.9052 -3.0984 6.9052 -6.9052 s-3.0984 -6.9052 -6.9052 -6.9052 s-6.9052 3.0966 -6.9052 6.9052 s3.0984 6.9052 6.9052 6.9052 z M98.9376 6.332000000000001 c3.689 0 6.69 3.001 6.6882 6.6882 c0 3.6872 -3.001 6.6882 -6.6882 6.6882 s-6.6882 -2.999 -6.6882 -6.6882 c0 -3.6872 2.999 -6.6882 6.6882 -6.6882 z M98.9376 19.27814 c3.4498 0 6.2576 -2.8078 6.2558 -6.2558 c0 -3.4518 -2.8058 -6.2576 -6.2558 -6.2576 s-6.2576 2.8078 -6.2576 6.2576 s2.8078 6.2558 6.2576 6.2558 z M98.9376 6.98 c3.332 0 6.0404 2.7102 6.0404 6.0404 s-2.7102 6.0404 -6.0404 6.0404 s-6.0404 -2.7102 -6.0404 -6.0404 s2.7102 -6.0404 6.0404 -6.0404 z M98.9376 18.6287 c3.093 0 5.608 -2.5152 5.608 -5.608 s-2.5152 -5.608 -5.608 -5.608 s-5.608 2.5152 -5.608 5.608 s2.5152 5.608 5.608 5.608 z M98.9376 7.628 c2.9734 0 5.3928 2.4196 5.3928 5.3928 s-2.4196 5.3928 -5.3928 5.3928 s-5.3928 -2.4196 -5.3928 -5.3928 s2.4196 -5.3928 5.3928 -5.3928 z M98.9376 17.981 c2.736 0 4.9604 -2.2244 4.9604 -4.9604 s-2.2244 -4.9604 -4.9604 -4.9604 s-4.9604 2.2244 -4.9604 4.9604 s2.2244 4.9604 4.9604 4.9604 z M98.9376 8.277 c2.6164 0 4.7452 2.127 4.7434 4.7434 c0 2.6146 -2.127 4.7434 -4.7434 4.7434 s-4.7452 -2.127 -4.7452 -4.7434 c0 -2.6146 2.1288 -4.7434 4.7452 -4.7434 z M98.9376 17.3334 c2.379 0 4.3128 -1.9338 4.3128 -4.3128 s-1.9356 -4.3128 -4.3128 -4.3128 s-4.3128 1.9338 -4.3128 4.3128 s1.9356 4.3128 4.3128 4.3128 z M107.31237999999999 19.99939454 l-0.43238 0 l0 -13.958 l0.43238 0 l0 13.958 z M107.9803 19.99939454 l-0.43238 0 l0 -13.958 l0.43238 0 l0 13.958 z M108.6464 19.99939454 l-0.43238 0 l0 -13.958 l0.43238 0 l0 13.958 z M109.3142 19.99939454 l-0.43238 0 l0 -13.958 l0.43238 0 l0 13.958 z M118.28399999999999 6.042 l0.4324 -0.000019531 l0 13.958 l-0.53357 0 l-8.2024 -13.207 l0 0.38271 l0.0036718 -0.0018359 l7.965 12.826 l-0.50781 0 l-7.461 -12.013 l0 0.37535 l7.2272 11.638 l-0.50781 0 l-6.7194 -10.819 l0 0.37535 l6.4858 10.443 l-0.50967 0 l-5.9762 -9.6246 l0 0.37535 l5.7442 9.2494 l-0.50967 0 l-5.2346 -8.4306 l0 8.4306 l-0.43238 0 l0 -9.1261 l-0.0036718 -0.0073632 l0.0036718 -0.0018359 l0 -4.8225 l0.47471 0 l5.5934 9.0064 l0 -9.0065 l0.43238 0 l0 9.702 l0.2355 0.37718 l0 -10.079 l0.43055 0 l0 10.776 l0.2355 0.37718 l0 -11.154 l0.43238 0 l0 11.849 l0.23368 0.37902 l0 -12.228 l0.43238 0 l0 12.924 l0.2355 0.37718 l0 -13.301 z M122.4626 18.1942 l0.43055 0 l0 1.5989 c0 0.90892 -0.2392 1.8013 -0.68998 2.587 l-0.40478 -0.16008 c0.43422 -0.73228 0.66422 -1.5713 0.66422 -2.4268 l0 -1.5989 z M122.2454 18.1942 l-0.000019531 1.5989 c0 0.83164 -0.2263 1.6394 -0.65316 2.3478 l-0.40662 -0.16008 c0.41032 -0.65686 0.62742 -1.4112 0.62742 -2.1876 l0 -1.5989 l0.43238 0 z M121.59779999999999 18.1942 l0 1.5989 c0 0.75068 -0.21528 1.4811 -0.61638 2.1066 l-0.41398 -0.16191 c0.38638 -0.57406 0.59798 -1.2475 0.59798 -1.9448 l0 -1.5989 l0.43238 0 z M120.9502 18.1942 l0.000019531 1.5989 c0 0.67158 -0.20792 1.3211 -0.5851 1.8638 l-0.41398 -0.16191 c0.3643 -0.48758 0.56668 -1.0837 0.56668 -1.7019 l0 -1.5989 l0.43238 0 z M119.87013999999999 18.1942 l0.43052 0.000019531 l0 1.5989 c0 0.6035 -0.20238 1.1684 -0.55748 1.621 l-0.42318 -0.16744 c0.3496 -0.39376 0.55014 -0.90342 0.55014 -1.4536 l0 -1.5989 z M129.47238 19.99939454 l-0.43238 0 l0 -13.958 l0.43238 0 l0 13.958 z M130.1403 19.99939454 l-0.43238 0 l0 -13.958 l0.43238 0 l0 13.958 z M130.8064 19.99939454 l-0.43238 0 l0 -13.958 l0.43238 0 l0 13.958 z M131.4742 19.99939454 l-0.43238 0 l0 -13.958 l0.43238 0 l0 13.958 z M140.444 6.042 l0.4324 -0.000019531 l0 13.958 l-0.53357 0 l-8.2024 -13.207 l0 0.38271 l0.0036718 -0.0018359 l7.965 12.826 l-0.50781 0 l-7.461 -12.013 l0 0.37535 l7.2272 11.638 l-0.50781 0 l-6.7194 -10.819 l0 0.37535 l6.4858 10.443 l-0.50967 0 l-5.9762 -9.6246 l0 0.37535 l5.7442 9.2494 l-0.50967 0 l-5.2346 -8.4306 l0 8.4306 l-0.43238 0 l0 -9.1261 l-0.0036718 -0.0073632 l0.0036718 -0.0018359 l0 -4.8225 l0.47471 0 l5.5934 9.0064 l0 -9.0065 l0.43238 0 l0 9.702 l0.2355 0.37718 l0 -10.079 l0.43055 0 l0 10.776 l0.2355 0.37718 l0 -11.154 l0.43238 0 l0 11.849 l0.23368 0.37902 l0 -12.228 l0.43238 0 l0 12.924 l0.2355 0.37718 l0 -13.301 z M148.8176 5.6850000000000005 c4.046 0 7.3376 3.2898 7.3376 7.3376 c0 4.046 -3.2916 7.3376 -7.3376 7.3376 s-7.3376 -3.2916 -7.3376 -7.3376 s3.2916 -7.3376 7.3376 -7.3376 z M148.8176 19.9258 c3.8068 0 6.9052 -3.0984 6.9052 -6.9052 s-3.0984 -6.9052 -6.9052 -6.9052 s-6.9052 3.0966 -6.9052 6.9052 s3.0984 6.9052 6.9052 6.9052 z M148.8176 6.332000000000001 c3.689 0 6.69 3.001 6.6882 6.6882 c0 3.6872 -3.001 6.6882 -6.6882 6.6882 s-6.6882 -2.999 -6.6882 -6.6882 c0 -3.6872 2.999 -6.6882 6.6882 -6.6882 z M148.8176 19.27814 c3.4498 0 6.2576 -2.8078 6.2558 -6.2558 c0 -3.4518 -2.8058 -6.2576 -6.2558 -6.2576 s-6.2576 2.8078 -6.2576 6.2576 s2.8078 6.2558 6.2576 6.2558 z M148.8176 6.98 c3.332 0 6.0404 2.7102 6.0404 6.0404 s-2.7102 6.0404 -6.0404 6.0404 s-6.0404 -2.7102 -6.0404 -6.0404 s2.7102 -6.0404 6.0404 -6.0404 z M148.8176 18.6287 c3.093 0 5.608 -2.5152 5.608 -5.608 s-2.5152 -5.608 -5.608 -5.608 s-5.608 2.5152 -5.608 5.608 s2.5152 5.608 5.608 5.608 z M148.8176 7.628 c2.9734 0 5.3928 2.4196 5.3928 5.3928 s-2.4196 5.3928 -5.3928 5.3928 s-5.3928 -2.4196 -5.3928 -5.3928 s2.4196 -5.3928 5.3928 -5.3928 z M148.8176 17.981 c2.736 0 4.9604 -2.2244 4.9604 -4.9604 s-2.2244 -4.9604 -4.9604 -4.9604 s-4.9604 2.2244 -4.9604 4.9604 s2.2244 4.9604 4.9604 4.9604 z M148.8176 8.277 c2.6164 0 4.7452 2.127 4.7434 4.7434 c0 2.6146 -2.127 4.7434 -4.7434 4.7434 s-4.7452 -2.127 -4.7452 -4.7434 c0 -2.6146 2.1288 -4.7434 4.7452 -4.7434 z M148.8176 17.3334 c2.379 0 4.3128 -1.9338 4.3128 -4.3128 s-1.9356 -4.3128 -4.3128 -4.3128 s-4.3128 1.9338 -4.3128 4.3128 s1.9356 4.3128 4.3128 4.3128 z M164.93519999999998 6.52 l-8.6753 0 l0 -0.43238 l8.6753 0 l0 0.43238 z M164.93519999999998 7.188000000000001 l-8.6753 0 l0 -0.43238 l8.6753 0 l0 0.43238 z M164.93519999999998 7.853999999999999 l-8.6753 0 l0 -0.43238 l8.6753 0 l0 0.43238 z M164.93519999999998 8.522 l-8.6753 0 l0 -0.43238 l8.6753 0 l0 0.43238 z M156.26 9.188 l0 -0.43238 l8.6771 0 l0 0.43238 l-2.7893 0 l0 10.811 l-0.43055 0 l0 -10.811 l-0.23551 0 l0 10.811 l-0.43238 0 l0 -10.811 l-0.23367 0 l0 10.811 l-0.43238 0 l0 -10.811 l-0.23551 0 l0 10.811 l-0.43238 0 l0 -10.811 l-0.23367 0 l0 10.811 l-0.43238 0 l0 -10.811 l-2.7893 0 z M168.6874 12.8292 l0.3919 -0.18031 l3.4076 7.3506 l-0.47654 0 z M169.2964 12.5588 l0.39192 -0.18031 l3.5326 7.621 l-0.47654 0 z M169.8798 12.2422 l0.39376 -0.18215 l3.6836 7.9392 l-0.47654 0 z M165.87238 19.99939454 l-0.43238 0 l0 -13.971 l0.43238 0 l0 13.971 z M166.5384 19.99939454 l-0.43238 0 l0 -13.971 l0.43238 0 l0 13.971 z M167.2064 19.99939454 l-0.43238 0 l0 -13.971 l0.43238 0 l0 13.971 z M167.8724 19.99939454 l-0.43238 0 l0 -13.971 l0.43238 0 l0 13.971 z M172.108 14.428 l2.5852 5.5732 l-0.47654 0 l-3.7498 -8.0884 l0.2208 -0.16191 c0.39558 -0.27784 0.63662 -0.73414 0.63662 -1.218 c0 -0.81876 -0.66606 -1.483 -1.483 -1.483 l-1.3008 0 l0 4.0184 l3.2126 6.931 l-0.47654 0 l-2.736 -5.9026 l0 5.9025 l-0.43238 0 l0 -13.971 l1.7314 0 c2.4858 0 4.5078 2.022 4.5078 4.5078 c0 1.6063 -0.85556 3.0818 -2.2392 3.8914 z M171.0058 12.0472 l0.091992 0.2024 c0.54278 -0.39926 0.87212 -1.0395 0.87212 -1.7166 c0 -1.1757 -0.95676 -2.1306 -2.1306 -2.1306 l-1.3008 0 l0 0.21527 l1.3008 0 c1.0561 0 1.9154 0.85924 1.9154 1.9154 c0 0.5943 -0.27966 1.1518 -0.74884 1.5143 z M171.2836 12.6488 l0.090136 0.19867 c0.77278 -0.51334 1.2438 -1.3836 1.2438 -2.3146 c0 -1.5327 -1.2456 -2.7782 -2.7782 -2.7782 l-1.3008 0 l0 0.21527 l1.3008 0 c1.4131 0 2.563 1.15 2.563 2.563 c0 0.8427 -0.42502 1.6412 -1.1187 2.116 z M171.5596 13.241399999999999 l0.092012 0.19691 c1.0028 -0.62558 1.6173 -1.7222 1.6173 -2.907 c0 -1.8878 -1.5382 -3.426 -3.4278 -3.426 l-1.3008 0 l0 0.21527 l1.3008 0 c1.77 0 3.2106 1.4407 3.2106 3.2106 c0 1.1003 -0.56854 2.1214 -1.4922 2.7102 z M171.8338 13.8338 l0.093848 0.20056 c1.2291 -0.73598 1.989 -2.0608 1.989 -3.4978 c0 -2.2466 -1.8289 -4.0754 -4.0754 -4.0754 l-1.3008 0 l0 0.21344 l1.3008 0 c2.127 0 3.8584 1.7314 3.8584 3.8584 c0 1.3523 -0.71204 2.6016 -1.8657 3.3008 z M176.13237999999998 20.0012305 l-0.43238 0 l0 -13.982 l0.43238 0 l0 13.982 z M176.7984 20.0012305 l-0.43238 0 l0 -13.982 l0.43238 0 l0 13.982 z M177.4664 20.0012305 l-0.43238 0 l0 -13.982 l0.43238 0 l0 13.982 z M178.1324 20.0012305 l-0.43238 0 l0 -13.982 l0.43238 0 l0 13.982 z M183.8712 6.449999999999999 l-5.0708 0.000019531 l0 0.23551 l5.0708 0 l0 0.43238 l-5.0708 0 l0 0.23367 l5.0708 0 l0 0.43238 l-5.0708 0 l0 0.23551 l5.0708 0 l0 0.43238 l-5.0708 0 l0 0.23367 l5.0708 0 l0 0.43238 l-5.0708 0 l0 2.6863 l3.6891 0 l0 0.43238 l-3.6891 0 l0 0.23551 l3.6891 0 l0 0.43055 l-3.6891 0 l0 0.23551 l3.6891 0 l0 0.43238 l-3.6891 0 l0 0.23367 l3.6891 0 l0 0.43238 l-3.6891 0 l0 0.23551 l3.6891 0 l0 0.43238 l-3.6891 0 l0 1.9963 l5.0708 0 l0 0.43238 l-5.0708 0 l0 0.23367 l5.0708 0 l0 0.43238 l-5.0708 0 l0 0.23551 l5.0708 0 l0 0.43055 l-5.0708 0 l0 0.23551 l5.0708 0 l0 0.43238 l-5.0708 0 l0 0.23367 l5.0708 0 l0 0.43238 l-5.5032 0 l0 -13.98 l5.5032 0 l0 0.43055 z M192.5296 13.0168 c0 -2.4656 2.0074 -4.4728 4.4728 -4.4728 l0.86293 0 l0 0.43238 l-0.86293 0 c-2.2282 0 -4.0404 1.8123 -4.0404 4.0404 s1.8123 4.0404 4.0404 4.0404 l0.86293 0 l0 0.43238 l-0.86293 0 c-2.4656 0 -4.4728 -2.0074 -4.4728 -4.4728 z M191.9022 13.0168 c0 -2.8114 2.2888 -5.1004 5.1002 -5.1004 l0.86293 0 l0 0.43238 l-0.86293 0 c-2.574 0 -4.668 2.0938 -4.668 4.668 s2.0938 4.668 4.668 4.668 l0.86293 0 l0 0.43238 l-0.86293 0 c-2.8132 0 -5.1002 -2.2888 -5.1002 -5.1002 z M191.27479999999997 13.0168 c0 -3.1574 2.5704 -5.7276 5.7276 -5.7276 l0.86293 0 l0 0.43238 l-0.86293 0 c-2.92 0 -5.2954 2.3754 -5.2954 5.2954 s2.3754 5.2954 5.2954 5.2954 l0.86293 0 l0 0.43238 l-0.86293 0 c-3.1592 0 -5.7276 -2.5704 -5.7276 -5.7278 z M190.64739999999998 13.0168 c0 -3.505 2.8518 -6.3552 6.3552 -6.3552 l0.86293 0 l0 0.43238 l-0.86293 0 c-3.2658 0 -5.9228 2.6568 -5.9228 5.9228 s2.6568 5.9228 5.9228 5.9228 l0.86293 0 l0 0.43238 l-0.86293 0 c-3.5032 0 -6.3552 -2.85 -6.3552 -6.3552 z M197.00259999999997 6.034000000000001 l0.86294 0.000039062 l0 0.43238 l-0.86293 0 c-3.6118 0 -6.5502 2.9384 -6.5502 6.5502 s2.9384 6.5502 6.5502 6.5502 l0.86293 0 l0 0.43238 l-0.86293 0 c-3.8492 0 -6.9826 -3.1334 -6.9826 -6.9826 s3.1316 -6.9826 6.9826 -6.9826 z M205.8176 5.6850000000000005 c4.046 0 7.3376 3.2898 7.3376 7.3376 c0 4.046 -3.2916 7.3376 -7.3376 7.3376 s-7.3376 -3.2916 -7.3376 -7.3376 s3.2916 -7.3376 7.3376 -7.3376 z M205.8176 19.9258 c3.8068 0 6.9052 -3.0984 6.9052 -6.9052 s-3.0984 -6.9052 -6.9052 -6.9052 s-6.9052 3.0966 -6.9052 6.9052 s3.0984 6.9052 6.9052 6.9052 z M205.8176 6.332000000000001 c3.689 0 6.69 3.001 6.6882 6.6882 c0 3.6872 -3.001 6.6882 -6.6882 6.6882 s-6.6882 -2.999 -6.6882 -6.6882 c0 -3.6872 2.999 -6.6882 6.6882 -6.6882 z M205.8176 19.27814 c3.4498 0 6.2576 -2.8078 6.2558 -6.2558 c0 -3.4518 -2.8058 -6.2576 -6.2558 -6.2576 s-6.2576 2.8078 -6.2576 6.2576 s2.8078 6.2558 6.2576 6.2558 z M205.8176 6.98 c3.332 0 6.0404 2.7102 6.0404 6.0404 s-2.7102 6.0404 -6.0404 6.0404 s-6.0404 -2.7102 -6.0404 -6.0404 s2.7102 -6.0404 6.0404 -6.0404 z M205.8176 18.6287 c3.093 0 5.608 -2.5152 5.608 -5.608 s-2.5152 -5.608 -5.608 -5.608 s-5.608 2.5152 -5.608 5.608 s2.5152 5.608 5.608 5.608 z M205.8176 7.628 c2.9734 0 5.3928 2.4196 5.3928 5.3928 s-2.4196 5.3928 -5.3928 5.3928 s-5.3928 -2.4196 -5.3928 -5.3928 s2.4196 -5.3928 5.3928 -5.3928 z M205.8176 17.981 c2.736 0 4.9604 -2.2244 4.9604 -4.9604 s-2.2244 -4.9604 -4.9604 -4.9604 s-4.9604 2.2244 -4.9604 4.9604 s2.2244 4.9604 4.9604 4.9604 z M205.8176 8.277 c2.6164 0 4.7452 2.127 4.7434 4.7434 c0 2.6146 -2.127 4.7434 -4.7434 4.7434 s-4.7452 -2.127 -4.7452 -4.7434 c0 -2.6146 2.1288 -4.7434 4.7452 -4.7434 z M205.8176 17.3334 c2.379 0 4.3128 -1.9338 4.3128 -4.3128 s-1.9356 -4.3128 -4.3128 -4.3128 s-4.3128 1.9338 -4.3128 4.3128 s1.9356 4.3128 4.3128 4.3128 z M221.2816 8.086 c1.3211 1.3192 2.0478 3.0746 2.046 4.942 c0 3.6762 -2.8868 6.725 -6.5116 6.9714 l-0.6127 0 l0 -13.958 l0.43238 0 l0 0.0055273 c1.7553 0.071758 3.3984 0.79118 4.6458 2.0386 z M216.6358 8.993 l0 8.0681 c2.0864 -0.15271 3.748 -1.9172 3.748 -4.0332 c0 -2.1178 -1.6615 -3.8822 -3.748 -4.035 z M216.6358 17.4934 l0 0.19689 c2.4342 -0.15271 4.3772 -2.2006 4.3772 -4.6624 c0 -2.4636 -1.9448 -4.5096 -4.3772 -4.6642 l0 0.19687 c2.3238 0.15271 4.1804 2.114 4.1804 4.4674 c0 2.3514 -1.8565 4.3128 -4.1804 4.4656 z M216.6358 18.122700000000002 l0 0.19687 c2.7782 -0.15455 5.0046 -2.4838 5.0046 -5.2916 s-2.2262 -5.1352 -5.0046 -5.2916 l0 0.19504 c2.6716 0.15455 4.8096 2.3974 4.8096 5.0966 s-2.1398 4.9402 -4.8096 5.0948 z M216.6358 18.7519 l0 0.19506 c3.126 -0.15455 5.6338 -2.7636 5.6338 -5.919 c0 -3.1536 -2.5078 -5.7646 -5.6338 -5.9208 l0 0.19687 c3.0174 0.15639 5.437 2.679 5.437 5.724 s-2.4196 5.5694 -5.437 5.724 z M216.6358 19.57624 c3.472 -0.15639 6.2612 -3.047 6.2612 -6.5484 c0 -1.7516 -0.68262 -3.3984 -1.9209 -4.6366 c-1.1665 -1.1684 -2.701 -1.8418 -4.3404 -1.9135 l0 0.19687 c3.3616 0.15639 6.0644 2.9622 6.0644 6.3532 s-2.701 6.195 -6.0644 6.3514 l0 0.19687 z M216.02499999999998 19.9994336 l-0.43238 0 l0 -13.958 l0.43238 0 l0 13.958 z M215.414 19.9994336 l-0.43238 0 l0 -13.958 l0.43238 0 l0 13.958 z M214.8032 19.9994336 l-0.43238 0 l0 -13.958 l0.43238 0 l0 13.958 z M214.19237999999999 19.9994336 l-0.43238 0 l0 -13.958 l0.43238 0 l0 13.958 z M224.77238 20.0012305 l-0.43238 0 l0 -13.982 l0.43238 0 l0 13.982 z M225.4384 20.0012305 l-0.43238 0 l0 -13.982 l0.43238 0 l0 13.982 z M226.1064 20.0012305 l-0.43238 0 l0 -13.982 l0.43238 0 l0 13.982 z M226.7724 20.0012305 l-0.43238 0 l0 -13.982 l0.43238 0 l0 13.982 z M232.5112 6.449999999999999 l-5.0708 0.000019531 l0 0.23551 l5.0708 0 l0 0.43238 l-5.0708 0 l0 0.23367 l5.0708 0 l0 0.43238 l-5.0708 0 l0 0.23551 l5.0708 0 l0 0.43238 l-5.0708 0 l0 0.23367 l5.0708 0 l0 0.43238 l-5.0708 0 l0 2.6863 l3.6891 0 l0 0.43238 l-3.6891 0 l0 0.23551 l3.6891 0 l0 0.43055 l-3.6891 0 l0 0.23551 l3.6891 0 l0 0.43238 l-3.6891 0 l0 0.23367 l3.6891 0 l0 0.43238 l-3.6891 0 l0 0.23551 l3.6891 0 l0 0.43238 l-3.6891 0 l0 1.9963 l5.0708 0 l0 0.43238 l-5.0708 0 l0 0.23367 l5.0708 0 l0 0.43238 l-5.0708 0 l0 0.23551 l5.0708 0 l0 0.43055 l-5.0708 0 l0 0.23551 l5.0708 0 l0 0.43238 l-5.0708 0 l0 0.23367 l5.0708 0 l0 0.43238 l-5.5032 0 l0 -13.98 l5.5032 0 l0 0.43055 z"></path></g></svg>